<?xml version="1.0" standalone="no"?>
<!DOCTYPE svg PUBLIC "-//W3C//DTD SVG 20010904//EN"
 "http://www.w3.org/TR/2001/REC-SVG-20010904/DTD/svg10.dtd">
<svg version="1.0" xmlns="http://www.w3.org/2000/svg"
 width="320.000000pt" height="320.000000pt" viewBox="0 0 320.000000 320.000000"
 preserveAspectRatio="xMidYMid meet">
<metadata>
Created by potrace 1.16, written by Peter Selinger 2001-2019
</metadata>
<g transform="translate(0.000000,320.000000) scale(0.100000,-0.100000)"
fill="#000000" stroke="none">
<path d="M1485 3154 c-22 -3 -86 -14 -142 -25 -622 -123 -1097 -608 -1209
-1234 -24 -134 -24 -394 0 -520 97 -512 431 -931 904 -1135 135 -58 369 -116
544 -134 69 -7 262 8 365 30 596 123 1064 594 1194 1204 33 151 33 437 0 590
-130 613 -593 1076 -1201 1200 -96 20 -365 34 -455 24z m370 -72 c134 -45 229
-106 318 -202 122 -131 187 -298 188 -475 1 -128 -20 -215 -77 -334 -38 -78
-60 -109 -132 -181 -138 -138 -269 -199 -478 -220 -162 -16 -230 -29 -307 -55
-231 -81 -410 -274 -488 -525 -34 -109 -34 -311 0 -420 50 -162 146 -305 268
-399 36 -28 63 -51 60 -51 -18 0 -164 59 -237 95 -243 122 -474 333 -607 555
-82 136 -153 320 -188 485 -23 108 -31 339 -16 459 55 434 289 812 655 1058
246 164 508 245 801 247 125 0 135 -1 240 -37z m-23 -1920 c107 -47 174 -162
165 -283 -7 -109 -62 -188 -167 -245 -53 -28 -190 -27 -246 3 -98 52 -153 133
-161 237 -6 74 7 128 47 188 76 114 232 158 362 100z"/>
<path d="M1600 2693 c-67 -24 -154 -115 -174 -183 -34 -113 -12 -209 64 -293
64 -70 128 -99 220 -99 92 0 156 29 220 99 77 84 98 183 63 294 -23 72 -107
158 -177 182 -61 21 -156 21 -216 0z"/>
</g>
</svg>
